<svg height="496pt" viewBox="0 -91 496 495" width="496pt" xmlns="http://www.w3.org/2000/svg"><path d="m496 8.339844c-.007812-.894532-.164062-1.78125-.464844-2.625-.03125-.054688-.066406-.113282-.101562-.167969-.109375-.222656-.230469-.441406-.363282-.65625-.308593-.621094-.699218-1.199219-1.160156-1.71875-.207031-.222656-.429687-.433594-.664062-.632813-.488282-.421874-1.023438-.789062-1.597656-1.085937-.257813-.144531-.527344-.273437-.800782-.386719-.90625-.359375-1.871094-.550781-2.847656-.566406h-480c-.964844.019531-1.917969.210938-2.816406.566406-.273438.113282-.542969.242188-.800782.386719-.574218.296875-1.109374.664063-1.597656 1.085937-.234375.199219-.457031.410157-.664062.632813-.460938.519531-.851563 1.097656-1.160156 1.71875-.132813.214844-.253907.433594-.359376.65625-.039062.054687-.074218.113281-.105468.167969-.308594.84375-.4765628 1.730468-.496094 2.625v.160156 296c0 4.417969 3.582031 8 8 8h480c4.417969 0 8-3.582031 8-8v-296c0-.054688 0-.105469 0-.160156zm-29.601562 8.160156-202.023438 173.777344c-9.347656 8.605468-23.761719 8.511718-33-.21875l-201.773438-173.558594zm-245.695313 185.480469c7.4375 6.914062 17.222656 10.746093 27.375 10.726562 10 .042969 19.640625-3.714843 26.96875-10.519531l35.28125-30.335938 90.023437 124.648438h-304.703124l90.023437-124.648438zm-204.703125-176.054688 157.496094 135.445313-97.585938 135.128906h-59.910156zm404.089844 270.574219-97.601563-135.121094 157.511719-135.453125v270.574219zm0 0"/></svg>