<svg height="512pt" viewBox="0 0 512 512" width="512pt" xmlns="http://www.w3.org/2000/svg"><path d="m413.835938 316h-130.03125c-31.980469 0-58-26.019531-58-58s26.019531-58 58-58h153.796874c8.878907 0 14.238282-5.917969 14.136719-5.855469 28.820313-29.136719 60.097657-77.421875 60.097657-119.90625.003906-40.933593-33.300782-74.238281-74.234376-74.238281-40.9375 0-74.238281 33.304688-74.238281 74.238281 0 31.671875 16.46875 63.042969 32.179688 85.761719h-111.738281c-54.035157 0-98 43.960938-98 98 0 54.035156 43.964843 98 98 98h130.03125c31.980468 0 58 26.019531 58 58s-26.019532 58-58 58h-297.539063c15.707031-22.71875 32.179687-54.085938 32.179687-85.761719 0-40.9375-33.304687-74.238281-74.238281-74.238281-40.933593 0-74.238281 33.304688-74.238281 74.238281 0 59.148438 57.429688 117.242188 60.09375 119.902344 0 0 .003906.003906.003906.003906.003906.003907.011719.011719.011719.011719.058594.058594.121094.105469.179687.164062 3.84375 3.742188 8.980469 5.679688 13.949219 5.679688h339.601563c54.035156 0 98-43.964844 98-98 0-54.039062-43.964844-98-98.003906-98zm23.765624-276c18.875 0 34.234376 15.359375 34.234376 34.238281 0 25.976563-18.84375 55.945313-34.175782 75.371094-14.28125-18.003906-34.296875-48.105469-34.296875-75.371094 0-18.878906 15.359375-34.238281 34.238281-34.238281zm-363.363281 312c18.878907 0 34.238281 15.359375 34.238281 34.238281 0 25.976563-18.847656 55.945313-34.179687 75.371094-14.277344-18.003906-34.296875-48.105469-34.296875-75.371094 0-18.878906 15.359375-34.238281 34.238281-34.238281zm0 0"/></svg>